<svg width="16" height="21" viewBox="0 0 16 21" fill="none" xmlns="http://www.w3.org/2000/svg">
<path d="M2.93264 0.48918L4.15218 0.122376C4.82026 -0.0790802 5.53881 -0.0305843 6.17375 0.258814C6.8087 0.548212 7.31666 1.05874 7.60286 1.69514L8.54547 3.79146C8.79154 4.33884 8.86006 4.94953 8.74142 5.53784C8.62278 6.12614 8.32294 6.66255 7.88397 7.07179L6.32165 8.52751C6.27602 8.57004 6.2471 8.6275 6.24014 8.68949C6.19416 9.10437 6.47527 9.91217 7.12423 11.0356C7.59449 11.8517 8.02191 12.4255 8.38453 12.7463C8.63848 12.971 8.77746 13.019 8.83703 13.0023L10.9375 12.3596C11.5112 12.1842 12.1253 12.1926 12.6939 12.3838C13.2625 12.5749 13.757 12.9392 14.1081 13.4255L15.4458 15.2815C15.853 15.8458 16.0416 16.5387 15.9767 17.2315C15.9117 17.9243 15.5976 18.5701 15.0926 19.0488L14.1656 19.9266C13.6742 20.392 13.0707 20.7222 12.4137 20.885C11.7568 21.0478 11.069 21.0377 10.4171 20.8557C7.53911 20.052 4.95894 17.6234 2.64735 13.6199C0.333662 9.6112 -0.479367 6.15844 0.270961 3.26059C0.439393 2.60884 0.772871 2.01147 1.23925 1.52605C1.70563 1.04063 2.28815 0.683537 2.93264 0.48918ZM3.38618 1.99088C2.9994 2.1072 2.64911 2.32119 2.36906 2.61222C2.08901 2.90325 1.88865 3.26151 1.78729 3.65247C1.15819 6.08947 1.87821 9.15035 4.00588 12.8361C6.13146 16.5167 8.41902 18.6705 10.8403 19.3467C11.2315 19.4557 11.6442 19.4617 12.0383 19.3639C12.4324 19.2661 12.7945 19.0679 13.0892 18.7886L14.0151 17.9108C14.2448 17.6932 14.3878 17.3996 14.4174 17.0846C14.447 16.7696 14.3612 16.4546 14.1761 16.198L12.8384 14.3431C12.6788 14.1217 12.4539 13.956 12.1952 13.869C11.9366 13.782 11.6572 13.7783 11.3963 13.8582L9.29057 14.503C8.06789 14.8666 6.95912 13.8833 5.76779 11.8193C4.96312 10.4295 4.589 9.35308 4.68306 8.51602C4.73113 8.08129 4.93386 7.68 5.25259 7.38112L6.81491 5.9254C7.01435 5.73928 7.15053 5.49538 7.20432 5.22793C7.2581 4.96048 7.22681 4.68291 7.11483 4.43415L6.17326 2.33783C6.04315 2.04855 5.81224 1.8165 5.52361 1.68497C5.23498 1.55344 4.90835 1.53143 4.60468 1.62303L3.38618 1.99088Z" fill="#83898C"/>
</svg>
