<svg width="10" height="10" viewBox="0 0 10 10" fill="none" xmlns="http://www.w3.org/2000/svg">
<path fill-rule="evenodd" clip-rule="evenodd" d="M9.65334 3.16899C9.40131 2.53034 9.02079 1.95025 8.53535 1.46471C8.04992 0.979163 7.46993 0.598502 6.83134 0.346325C6.68054 0.517499 6.56013 0.713211 6.47534 0.924991C7.07238 1.14204 7.61459 1.48732 8.0638 1.93653C8.51301 2.38574 8.85829 2.92795 9.07534 3.52499C9.28712 3.4402 9.48283 3.31979 9.65401 3.16899M5.15267 0.668991L5 0.666991C4.13648 0.666991 3.29264 0.924988 2.57676 1.40788C1.86087 1.89078 1.30558 2.57654 0.982135 3.37721C0.658688 4.17787 0.581831 5.05691 0.761424 5.90156C0.941018 6.7462 1.36887 7.51793 1.99009 8.11773C2.61132 8.71753 3.39758 9.11805 4.248 9.26791C5.09843 9.41776 5.97423 9.31012 6.76306 8.95879C7.55188 8.60745 8.21775 8.02845 8.67524 7.29607C9.13272 6.56369 9.36096 5.71132 9.33067 4.84832C9.56 4.77632 9.77689 4.68188 9.98134 4.56499C9.99334 4.70855 9.99956 4.85366 10 5.00032C9.99994 6.00779 9.69553 6.99173 9.12668 7.82322C8.55782 8.65472 7.75105 9.29497 6.81207 9.66009C5.8731 10.0252 4.84573 10.0982 3.86459 9.86938C2.88345 9.6406 1.9943 9.12077 1.31366 8.378C0.633019 7.63523 0.192636 6.70417 0.0502162 5.70683C-0.0922034 4.70948 0.0699846 3.69238 0.515528 2.78879C0.961071 1.8852 1.66918 1.13728 2.54708 0.643036C3.42498 0.148791 4.4317 -0.0687253 5.43534 0.0189911C5.31801 0.22518 5.22303 0.443305 5.152 0.669658" fill="#5E6366"/>
</svg>
