<svg width="21" height="21" viewBox="0 0 21 21" fill="none" xmlns="http://www.w3.org/2000/svg">
<path d="M7.5641 0.768293C4.83307 0.829756 3.2381 1.09098 2.14815 2.17683C1.19341 3.12746 0.874829 4.46429 0.768293 6.60732M13.4359 0.768293C16.1669 0.829756 17.7619 1.09098 18.8519 2.17683C19.8066 3.12746 20.1252 4.46429 20.2317 6.60732M13.4359 20.2317C16.1669 20.1702 17.7619 19.909 18.8519 18.8232C19.8066 17.8725 20.1252 16.5357 20.2317 14.3927M7.5641 20.2317C4.83307 20.1702 3.2381 19.909 2.14815 18.8232C1.19341 17.8725 0.874829 16.5357 0.768293 14.3927M5.89024 15.622C8.27912 13.1204 12.6953 13.0026 15.1098 15.622M13.0559 7.93902C13.0559 9.35268 11.9085 10.5 10.4918 10.5C10.1551 10.5005 9.82169 10.4347 9.5105 10.3062C9.19932 10.1778 8.91651 9.98922 8.67827 9.75136C8.44003 9.5135 8.25102 9.23099 8.12207 8.92001C7.99311 8.60904 7.92673 8.27568 7.92673 7.93902C7.92673 6.52537 9.07405 5.37805 10.4918 5.37805C10.8284 5.37764 11.1617 5.44359 11.4728 5.57211C11.7839 5.70063 12.0665 5.88921 12.3047 6.12705C12.5428 6.3649 12.7317 6.64736 12.8606 6.95827C12.9895 7.26918 13.0559 7.60245 13.0559 7.93902Z" stroke="#ABAFB1" stroke-width="1.5" stroke-linecap="round" stroke-linejoin="round"/>
</svg>
