<svg width="48" height="40" viewBox="0 0 48 40" fill="none" xmlns="http://www.w3.org/2000/svg">
<path d="M31.9999 28L23.9999 20M23.9999 20L15.9999 28M23.9999 20V38M40.7799 32.78C42.7306 31.7165 44.2716 30.0337 45.1597 27.9972C46.0477 25.9607 46.2323 23.6864 45.6843 21.5333C45.1363 19.3803 43.8869 17.471 42.1333 16.1069C40.3796 14.7427 38.2216 14.0014 35.9999 14H33.4799C32.8746 11.6585 31.7462 9.48464 30.1798 7.64195C28.6134 5.79927 26.6496 4.33567 24.4361 3.36118C22.2226 2.3867 19.817 1.92669 17.4002 2.01573C14.9833 2.10478 12.6181 2.74057 10.4823 3.8753C8.34649 5.01003 6.49574 6.61417 5.06916 8.56713C3.64259 10.5201 2.6773 12.771 2.24588 15.1508C1.81446 17.5305 1.92813 19.977 2.57835 22.3065C3.22856 24.6359 4.3984 26.7877 5.99992 28.6" stroke="#5E6366" stroke-width="4" stroke-linecap="round" stroke-linejoin="round"/>
</svg>
